<svg width="882" height="1019" viewBox="0 0 882 1019" fill="none" xmlns="http://www.w3.org/2000/svg">
<g filter="url(#filter0_d_84_12)">
<path d="M98.9107 507.77L100.903 507.77L100.903 529.514L98.9107 529.514L98.9107 507.77ZM84.3907 509.618L86.3587 509.618L86.3587 515.354L92.6227 515.354L92.6227 509.618L94.6147 509.618L94.6147 524.282L84.3907 524.282L84.3907 509.618ZM86.3587 516.938L86.3587 522.65L92.6227 522.65L92.6227 516.938L86.3587 516.938ZM106.373 508.994L116.477 508.994L116.477 517.874L106.373 517.874L106.373 508.994ZM114.557 510.578L108.293 510.578L108.293 516.266L114.557 516.266L114.557 510.578ZM121.013 507.794L123.005 507.794L123.005 518.954L121.013 518.954L121.013 507.794ZM108.965 520.034L123.005 520.034L123.005 525.29L110.957 525.29L110.957 528.338L109.013 528.338L109.013 523.802L121.037 523.802L121.037 521.618L108.965 521.618L108.965 520.034ZM109.013 527.666L123.749 527.666L123.749 529.25L109.013 529.25L109.013 527.666ZM137.547 513.914L143.787 513.914L143.787 515.546L137.547 515.546L137.547 513.914ZM143.163 507.818L145.155 507.818L145.155 523.874L143.163 523.874L143.163 507.818ZM131.211 527.378L145.683 527.378L145.683 529.01L131.211 529.01L131.211 527.378ZM131.211 522.314L133.203 522.314L133.203 528.218L131.211 528.218L131.211 522.314ZM128.379 509.234L130.347 509.234L130.347 513.074L136.227 513.074L136.227 509.234L138.171 509.234L138.171 520.178L128.379 520.178L128.379 509.234ZM130.347 514.634L130.347 518.546L136.227 518.546L136.227 514.634L130.347 514.634ZM150.361 510.962L167.977 510.962L167.977 512.594L150.361 512.594L150.361 510.962ZM149.401 525.314L169.057 525.314L169.057 526.97L149.401 526.97L149.401 525.314ZM158.209 521.882L160.177 521.882L160.177 525.962L158.209 525.962L158.209 521.882ZM159.169 514.058C163.561 514.058 166.273 515.57 166.273 518.186C166.273 520.802 163.561 522.314 159.169 522.314C154.801 522.314 152.089 520.802 152.089 518.186C152.089 515.57 154.801 514.058 159.169 514.058ZM159.169 515.618C156.025 515.618 154.081 516.578 154.081 518.186C154.081 519.794 156.025 520.73 159.169 520.73C162.337 520.73 164.257 519.794 164.257 518.186C164.257 516.578 162.337 515.618 159.169 515.618ZM158.209 508.154L160.177 508.154L160.177 511.97L158.209 511.97L158.209 508.154Z" fill="black"/>
<path d="M182.434 684.217L189.058 684.217L189.058 685.849L182.434 685.849L182.434 684.217ZM182.434 689.209L189.058 689.209L189.058 690.865L182.434 690.865L182.434 689.209ZM178.474 682.369C181.666 682.369 184.066 684.529 184.066 687.529C184.066 690.553 181.666 692.689 178.474 692.689C175.258 692.689 172.882 690.553 172.882 687.529C172.882 684.529 175.258 682.369 178.474 682.369ZM178.474 684.073C176.362 684.073 174.802 685.489 174.802 687.529C174.802 689.569 176.362 690.985 178.474 690.985C180.586 690.985 182.17 689.569 182.17 687.529C182.17 685.489 180.586 684.073 178.474 684.073ZM188.41 681.097L190.402 681.097L190.402 693.937L188.41 693.937L188.41 681.097ZM183.274 694.441C187.738 694.441 190.498 695.977 190.498 698.593C190.498 701.233 187.738 702.745 183.274 702.745C178.786 702.745 176.026 701.233 176.026 698.593C176.026 695.977 178.786 694.441 183.274 694.441ZM183.274 696.025C179.986 696.025 177.994 696.985 177.994 698.593C177.994 700.225 179.986 701.185 183.274 701.185C186.538 701.185 188.53 700.225 188.53 698.593C188.53 696.985 186.538 696.025 183.274 696.025ZM194.625 692.185L214.281 692.185L214.281 693.817L194.625 693.817L194.625 692.185ZM203.601 693.193L205.593 693.193L205.593 698.185L203.601 698.185L203.601 693.193ZM197.145 682.105L211.737 682.105L211.737 689.737L197.145 689.737L197.145 682.105ZM209.769 683.713L199.089 683.713L199.089 688.129L209.769 688.129L209.769 683.713ZM197.121 700.681L212.097 700.681L212.097 702.313L197.121 702.313L197.121 700.681ZM197.121 696.097L199.089 696.097L199.089 701.257L197.121 701.257L197.121 696.097ZM220.368 698.535L220.231 699.455C220.135 700.103 219.987 700.796 219.788 701.535C219.595 702.273 219.393 702.969 219.183 703.623C218.973 704.276 218.799 704.796 218.663 705.182L217.129 705.182C217.203 704.819 217.299 704.339 217.419 703.742C217.538 703.145 217.657 702.478 217.777 701.739C217.902 701.006 218.004 700.256 218.084 699.489L218.186 698.535L220.368 698.535ZM230.179 690.961L249.859 690.961L249.859 692.617L230.179 692.617L230.179 690.961ZM238.987 691.705L240.931 691.705L240.931 695.017L238.987 695.017L238.987 691.705ZM238.939 696.025L240.643 696.025L240.643 696.697C240.643 700.009 236.803 702.193 232.267 702.721L231.619 701.185C235.531 700.777 238.939 699.001 238.939 696.697L238.939 696.025ZM239.275 696.025L240.979 696.025L240.979 696.697C240.979 699.073 244.363 700.801 248.299 701.185L247.651 702.721C243.139 702.193 239.275 700.081 239.275 696.697L239.275 696.025ZM238.987 681.361L240.691 681.361L240.691 682.321C240.691 686.065 236.491 688.729 232.003 689.377L231.283 687.841C235.195 687.337 238.987 685.057 238.987 682.321L238.987 681.361ZM239.299 681.361L241.003 681.361L241.003 682.321C241.003 684.985 244.843 687.337 248.683 687.841L247.963 689.377C243.547 688.729 239.299 686.017 239.299 682.321L239.299 681.361ZM257.633 684.193L259.217 684.193L259.217 687.721C259.217 692.233 256.457 696.889 253.073 698.617L251.921 697.033C255.017 695.521 257.633 691.393 257.633 687.721L257.633 684.193ZM257.993 684.193L259.577 684.193L259.577 687.721C259.577 691.153 262.025 695.017 265.169 696.505L264.041 698.089C260.609 696.385 257.993 692.017 257.993 687.721L257.993 684.193ZM252.689 683.305L264.377 683.305L264.377 684.985L252.689 684.985L252.689 683.305ZM266.945 681.097L268.961 681.097L268.961 702.793L266.945 702.793L266.945 681.097ZM268.481 689.857L272.513 689.857L272.513 691.537L268.481 691.537L268.481 689.857ZM281.11 698.449L300.766 698.449L300.766 700.105L281.11 700.105L281.11 698.449ZM289.87 692.833L291.862 692.833L291.862 699.193L289.87 699.193L289.87 692.833ZM282.814 683.161L298.918 683.161L298.918 684.793L282.814 684.793L282.814 683.161ZM282.862 691.897L298.894 691.897L298.894 693.505L282.862 693.505L282.862 691.897ZM286.198 684.481L288.19 684.481L288.19 692.185L286.198 692.185L286.198 684.481ZM293.59 684.481L295.558 684.481L295.558 692.185L293.59 692.185L293.59 684.481ZM318.02 681.097L320.012 681.097L320.012 694.153L318.02 694.153L318.02 681.097ZM319.46 686.857L323.228 686.857L323.228 688.513L319.46 688.513L319.46 686.857ZM306.38 695.377L320.012 695.377L320.012 702.505L306.38 702.505L306.38 695.377ZM318.068 696.985L308.324 696.985L308.324 700.897L318.068 700.897L318.068 696.985ZM303.236 683.377L316.052 683.377L316.052 685.009L303.236 685.009L303.236 683.377ZM309.644 686.065C312.74 686.065 314.828 687.601 314.828 689.953C314.828 692.305 312.74 693.793 309.644 693.793C306.524 693.793 304.436 692.305 304.436 689.953C304.436 687.601 306.524 686.065 309.644 686.065ZM309.644 687.601C307.652 687.601 306.332 688.513 306.332 689.953C306.332 691.369 307.652 692.281 309.644 692.281C311.588 692.281 312.932 691.369 312.932 689.953C312.932 688.513 311.588 687.601 309.644 687.601ZM308.636 680.905L310.628 680.905L310.628 684.217L308.636 684.217L308.636 680.905ZM338.213 701.16C337.043 701.16 336.009 700.952 335.111 700.537C334.219 700.117 333.523 699.54 333.023 698.807C332.523 698.069 332.276 697.228 332.282 696.285C332.276 695.546 332.421 694.864 332.716 694.239C333.012 693.608 333.415 693.083 333.927 692.662C334.444 692.236 335.02 691.966 335.657 691.853L335.657 691.75C334.821 691.535 334.157 691.066 333.662 690.344C333.168 689.617 332.924 688.79 332.929 687.864C332.924 686.978 333.148 686.185 333.603 685.486C334.057 684.787 334.682 684.236 335.478 683.833C336.279 683.429 337.191 683.228 338.213 683.228C339.225 683.228 340.128 683.429 340.924 683.833C341.719 684.236 342.344 684.787 342.799 685.486C343.259 686.185 343.492 686.978 343.498 687.864C343.492 688.79 343.239 689.617 342.739 690.344C342.245 691.066 341.588 691.535 340.77 691.75L340.77 691.853C341.401 691.966 341.969 692.236 342.475 692.662C342.981 693.083 343.384 693.608 343.685 694.239C343.986 694.864 344.14 695.546 344.145 696.285C344.14 697.228 343.884 698.069 343.378 698.807C342.878 699.54 342.182 700.117 341.29 700.537C340.404 700.952 339.378 701.16 338.213 701.16ZM338.213 699.285C339.003 699.285 339.685 699.157 340.259 698.901C340.833 698.645 341.276 698.285 341.588 697.819C341.901 697.353 342.06 696.807 342.066 696.182C342.06 695.523 341.89 694.941 341.554 694.435C341.219 693.929 340.762 693.532 340.182 693.242C339.608 692.952 338.952 692.807 338.213 692.807C337.469 692.807 336.804 692.952 336.219 693.242C335.64 693.532 335.182 693.929 334.847 694.435C334.517 694.941 334.356 695.523 334.361 696.182C334.356 696.807 334.506 697.353 334.813 697.819C335.125 698.285 335.571 698.645 336.151 698.901C336.731 699.157 337.418 699.285 338.213 699.285ZM338.213 691C338.838 691 339.392 690.875 339.875 690.625C340.364 690.375 340.748 690.026 341.026 689.577C341.304 689.128 341.446 688.603 341.452 688C341.446 687.41 341.307 686.895 341.035 686.458C340.762 686.015 340.384 685.674 339.901 685.435C339.418 685.191 338.856 685.069 338.213 685.069C337.56 685.069 336.989 685.191 336.5 685.435C336.012 685.674 335.634 686.015 335.367 686.458C335.1 686.895 334.969 687.41 334.975 688C334.969 688.603 335.103 689.128 335.375 689.577C335.654 690.026 336.037 690.375 336.526 690.625C337.015 690.875 337.577 691 338.213 691ZM347.582 693.932C347.565 692.989 347.718 692.231 348.042 691.657C348.366 691.083 348.787 690.665 349.304 690.404C349.826 690.142 350.378 690.012 350.957 690.012C351.537 690.012 352.065 690.14 352.542 690.395C353.025 690.645 353.576 691.04 354.196 691.58C354.616 691.944 354.951 692.199 355.201 692.347C355.457 692.495 355.736 692.569 356.037 692.569C356.525 692.569 356.912 692.392 357.196 692.04C357.48 691.682 357.616 691.165 357.605 690.489L359.446 690.489C359.463 691.432 359.309 692.191 358.986 692.765C358.667 693.339 358.247 693.756 357.724 694.017C357.201 694.279 356.65 694.41 356.071 694.41C355.491 694.41 354.963 694.285 354.486 694.035C354.008 693.779 353.457 693.381 352.832 692.841C352.417 692.478 352.082 692.222 351.826 692.074C351.571 691.927 351.292 691.853 350.991 691.853C350.531 691.853 350.15 692.015 349.849 692.339C349.554 692.657 349.412 693.188 349.423 693.932L347.582 693.932ZM369.368 683.466L369.368 700.921L367.255 700.921L367.255 685.682L367.152 685.682L362.891 688.512L362.891 686.364L367.255 683.466L369.368 683.466ZM379.843 701.16C378.843 701.16 377.942 700.961 377.141 700.563C376.34 700.165 375.698 699.62 375.215 698.927C374.732 698.233 374.468 697.444 374.422 696.557L376.468 696.557C376.547 697.347 376.905 698 377.542 698.517C378.184 699.029 378.951 699.285 379.843 699.285C380.559 699.285 381.195 699.117 381.752 698.782C382.314 698.446 382.755 697.986 383.073 697.401C383.397 696.81 383.559 696.142 383.559 695.398C383.559 694.637 383.391 693.958 383.056 693.361C382.726 692.759 382.272 692.285 381.692 691.938C381.113 691.591 380.451 691.415 379.706 691.41C379.172 691.404 378.624 691.486 378.062 691.657C377.499 691.821 377.036 692.035 376.672 692.296L374.695 692.057L375.752 683.466L384.82 683.466L384.82 685.341L377.525 685.341L376.911 690.489L377.013 690.489C377.371 690.205 377.82 689.969 378.36 689.782C378.9 689.594 379.462 689.5 380.047 689.5C381.115 689.5 382.067 689.756 382.902 690.267C383.743 690.773 384.402 691.466 384.88 692.347C385.363 693.228 385.604 694.233 385.604 695.364C385.604 696.478 385.354 697.472 384.854 698.347C384.36 699.216 383.678 699.904 382.809 700.41C381.939 700.91 380.951 701.16 379.843 701.16ZM393.735 684.193L395.319 684.193L395.319 687.721C395.319 692.233 392.559 696.889 389.175 698.617L388.023 697.033C391.119 695.521 393.735 691.393 393.735 687.721L393.735 684.193ZM394.095 684.193L395.679 684.193L395.679 687.721C395.679 691.153 398.127 695.017 401.271 696.505L400.143 698.089C396.711 696.385 394.095 692.017 394.095 687.721L394.095 684.193ZM388.791 683.305L400.479 683.305L400.479 684.985L388.791 684.985L388.791 683.305ZM403.047 681.097L405.063 681.097L405.063 702.793L403.047 702.793L403.047 681.097ZM404.583 689.857L408.615 689.857L408.615 691.537L404.583 691.537L404.583 689.857Z" fill="#9C9C9C"/>
<path d="M829.78 -1.28382e-08L857.75 -1.3273e-08L870.95 -1.34783e-08C872.607 -1.3504e-08 873.95 1.34314 873.95 3L873.95 46.1605C873.95 46.7438 873.773 47.3223 873.459 47.8136C849.941 84.5489 863.268 121.556 873.407 136.354C873.76 136.871 873.95 137.467 873.95 138.093L873.95 199.41C873.95 200.002 873.768 200.589 873.444 201.085C847.381 241.009 862.16 280.611 873.374 296.326C873.749 296.851 873.95 297.464 873.95 298.11L873.95 345.895C873.95 346.522 873.746 347.14 873.387 347.654C846.036 386.723 861.708 431.341 873.466 449.637C873.785 450.133 873.95 450.693 873.95 451.283L873.95 466.512L873.95 507.256C873.95 507.864 873.759 508.464 873.419 508.967C843.402 553.447 860.657 604.808 873.504 625.779C873.799 626.261 873.95 626.797 873.95 627.362L873.95 687.323C873.95 687.983 873.726 688.629 873.332 689.159C847.256 724.223 862.368 773.043 873.59 793.888C873.83 794.333 873.95 794.814 873.95 795.32L873.95 843.424C873.95 843.991 873.782 844.557 873.483 845.039C846.825 887.99 864.403 926.653 877.247 941.58C877.731 942.144 878 942.846 878 943.59L878 1008C878 1009.66 876.657 1011 875 1011L863.495 1011C862.443 1011 861.448 1010.41 860.893 1009.52C835.152 968 817.194 990.569 810.658 1008.92C810.219 1010.15 809.069 1011 807.76 1011L787.957 1011C787.019 1011 786.114 1010.53 785.539 1009.79C752.994 967.9 733.101 990.531 726.424 1008.92C725.977 1010.15 724.828 1011 723.519 1011L686.931 1011C685.87 1011 684.866 1010.4 684.315 1009.49C655.721 962.415 630.943 988.566 621.227 1009.21C620.719 1010.29 619.645 1011 618.452 1011L579.201 1011C578.139 1011 577.136 1010.4 576.584 1009.49C549.248 964.531 524.835 989.504 515.13 1009.26C514.612 1010.31 513.551 1011 512.375 1011L467.523 1011C466.406 1011 465.363 1010.34 464.83 1009.36C440.513 964.514 415.432 989.599 404.991 1009.35C404.458 1010.35 403.423 1011 402.283 1011L362.138 1011C361.065 1011 360.055 1010.39 359.505 1009.47C331.902 963.249 301.795 989.299 289.197 1009.54C288.636 1010.44 287.661 1011 286.599 1011L238.245 1011C237.152 1011 236.126 1010.36 235.584 1009.42C208.732 962.334 181.904 988.7 170.9 1009.36C170.366 1010.36 169.334 1011 168.198 1011L121.489 1011C120.457 1011 119.478 1010.43 118.917 1009.57C88.9684 963.333 61.2747 989.148 50.216 1009.38C49.6755 1010.37 48.6512 1011 47.5242 1011L7 1011C5.34315 1011 4 1009.66 4 1008L4 994.231C4 993.765 4.11461 993.294 4.32123 992.877C28.2121 944.623 15.533 917.181 5.19945 908.422C4.46525 907.8 4 906.91 4 905.948L4 849.134C4 848.604 4.14616 848.075 4.40955 847.616C37.6681 789.673 18.8495 740.871 4.6571 722.771C4.22955 722.226 4 721.572 4 720.879L4 635.247C4 634.797 4.10526 634.345 4.29829 633.94C33.8708 571.772 17.1892 523.553 4.59583 506.297C4.20726 505.765 4 505.143 4 504.484L4 416.318C4 415.735 4.17713 415.155 4.49274 414.665C36.3842 365.121 18.248 317.697 4.60177 299.258C4.20857 298.727 4 298.102 4 297.441L4 199.865C4 199.283 4.17737 198.703 4.49187 198.213C37.5335 146.815 18.9547 104.144 4.79018 88.251C4.28245 87.6813 4 86.9622 4 86.1991L4 3C4 1.34315 5.34315 0 7 0L49.9727 -7.14726e-10C51.09 -7.32098e-10 52.1384 0.670141 52.6651 1.65557C85.0588 62.2648 109.431 28.5206 118.342 2.09505C118.762 0.850533 119.916 -1.80212e-09 121.229 -1.82254e-09L168.181 -2.55249e-09C169.326 -2.57029e-09 170.393 0.701405 170.909 1.72372C200.957 61.3335 228.745 27.8725 239.753 1.87424C240.232 0.743105 241.329 -3.68969e-09 242.557 -3.70879e-09L291.187 -4.46482e-09C292.391 -4.48355e-09 293.498 0.772301 293.982 1.87511C317.666 55.8453 340.603 25.6679 349.941 1.95092C350.401 0.781208 351.519 -5.4028e-09 352.776 -5.42234e-09L409.46 -6.30359e-09C410.658 -6.32222e-09 411.762 0.766101 412.249 1.86126C437.187 57.9748 460.487 26.5971 469.836 1.98353C470.287 0.796395 471.414 -7.26677e-09 472.684 -7.28651e-09L514.042 -7.9295e-09C515.194 -7.94741e-09 516.263 0.706804 516.778 1.7374C544.523 57.284 577.3 25.7858 591.203 1.54068C591.748 0.589945 592.748 -9.15313e-09 593.844 -9.17017e-09L637.903 -9.85514e-09C639.091 -9.87361e-09 640.187 0.752879 640.681 1.83314C668.466 62.5658 701.803 28.0816 715.963 1.61449C716.494 0.621745 717.516 -1.10929e-08 718.642 -1.11104e-08L759.474 -1.17452e-08C760.626 -1.17631e-08 761.697 0.708343 762.21 1.73985C789.72 57.0609 816.272 26.036 826.992 1.8319C827.483 0.724229 828.569 -1.28194e-08 829.78 -1.28382e-08Z" fill="#FFF2D9"/>
</g>
<ellipse cx="413.187" cy="439.383" rx="160.378" ry="144.587" fill="white"/>
<ellipse cx="420.656" cy="702.265" rx="227.513" ry="203.736" fill="white"/>
<path d="M407.705 637.026C407.705 651.545 394.346 663.314 377.868 663.314C361.389 663.314 348.03 651.545 348.03 637.026C348.03 622.507 361.389 610.737 377.868 610.737C394.346 610.737 407.705 622.507 407.705 637.026Z" fill="black"/>
<ellipse cx="446.759" cy="426.239" rx="14.9189" ry="13.1442" fill="black"/>
<ellipse cx="357.246" cy="413.087" rx="14.9189" ry="13.1442" fill="black"/>
<ellipse cx="375.649" cy="725.567" rx="29.8377" ry="26.2885" fill="#020202"/>
<rect width="196.722" height="14.0676" rx="3" transform="matrix(0.747359 0.66442 -0.753269 0.657712 136.597 498.529)" fill="#C26100"/>
<rect width="120.128" height="14.6497" rx="3" transform="matrix(-0.884767 0.466035 -0.561497 -0.827479 703 598.191)" fill="#C26100"/>
<ellipse cx="398.269" cy="449.237" rx="18.6486" ry="16.4303" fill="#FF7C7C"/>
<path d="M350.39 488.044C364.128 503.025 403.51 523.098 451.135 483.55" stroke="black"/>
<path d="M568.736 371.18C520.814 392.279 401.474 336.81 347.795 306.439C334.457 268.238 364.99 238.561 381.923 228.497C461.171 151.88 565.514 162.445 607.78 177.305L632.283 211.177C631.069 255.72 616.659 350.081 568.736 371.18Z" fill="#F64A2F"/>
<ellipse cx="634.312" cy="173.448" rx="41.214" ry="40.4475" fill="white"/>
<path d="M272.544 546.456C265.217 539.266 275.597 522.487 281.703 514.997C354.973 579.713 495.405 532.974 556.463 501.515L547.305 546.456C428.242 622.857 281.703 555.445 272.544 546.456Z" fill="#3B8300"/>
<path d="M638.892 501.515L554.054 506.009L538.146 541.962L628.287 582.41L638.892 501.515Z" fill="#3B8300"/>
<defs>
<filter id="filter0_d_84_12" x="0" y="0" width="882" height="1019" filterUnits="userSpaceOnUse" color-interpolation-filters="sRGB">
<feFlood flood-opacity="0" result="BackgroundImageFix"/>
<feColorMatrix in="SourceAlpha" type="matrix" values="0 0 0 0 0 0 0 0 0 0 0 0 0 0 0 0 0 0 127 0" result="hardAlpha"/>
<feOffset dy="4"/>
<feGaussianBlur stdDeviation="2"/>
<feComposite in2="hardAlpha" operator="out"/>
<feColorMatrix type="matrix" values="0 0 0 0 0 0 0 0 0 0 0 0 0 0 0 0 0 0 0.25 0"/>
<feBlend mode="normal" in2="BackgroundImageFix" result="effect1_dropShadow_84_12"/>
<feBlend mode="normal" in="SourceGraphic" in2="effect1_dropShadow_84_12" result="shape"/>
</filter>
</defs>
</svg>
